<?xml version="1.0" standalone="no"?>
<!DOCTYPE svg PUBLIC "-//W3C//DTD SVG 20010904//EN"
 "http://www.w3.org/TR/2001/REC-SVG-20010904/DTD/svg10.dtd">
<svg version="1.0" xmlns="http://www.w3.org/2000/svg"
 width="480.000000pt" height="480.000000pt" viewBox="0 0 480.000000 480.000000"
 preserveAspectRatio="xMidYMid meet">
<metadata>
Created by potrace 1.11, written by Peter Selinger 2001-2013
</metadata>
<g transform="translate(0.000000,480.000000) scale(0.100000,-0.100000)"
fill="#000000" stroke="none">
<path d="M2317 4426 c-99 -33 -150 -85 -163 -166 -6 -34 -10 -39 -43 -45 -50
-9 -127 -53 -148 -84 -9 -14 -19 -39 -23 -56 -5 -28 -9 -30 -64 -37 -32 -4
-102 -19 -155 -33 -53 -14 -143 -35 -201 -46 -191 -36 -260 -67 -335 -151
-103 -115 -161 -301 -182 -592 -8 -111 -7 -643 2 -1126 4 -195 8 -510 9 -700
3 -348 7 -393 47 -535 43 -155 174 -314 324 -392 100 -52 225 -96 380 -134
121 -29 349 -71 460 -84 32 -4 66 -8 75 -10 8 -1 58 -6 110 -10 52 -3 113 -8
135 -11 51 -5 424 -5 530 1 93 4 242 18 335 30 19 3 60 7 90 10 152 15 351 61
467 108 249 102 412 338 450 653 10 85 9 485 -1 689 -4 83 -9 179 -11 215 -3
63 -12 202 -20 305 -2 28 -6 100 -10 160 -3 61 -8 133 -10 161 -2 28 -7 104
-10 170 -3 65 -8 146 -10 179 -2 33 -7 105 -10 160 -3 55 -8 120 -10 145 -3
25 -7 72 -10 105 -23 237 -99 488 -190 631 -99 155 -227 228 -446 256 -224 29
-469 2 -542 -60 -9 -8 -18 -13 -20 -11 -63 91 -125 125 -234 129 -7 0 -13 8
-13 17 0 37 -45 84 -115 119 -131 64 -315 81 -438 40z"/>
</g>
</svg>
