<svg xmlns="http://www.w3.org/2000/svg" viewBox="0 0 512 512" width="192px" height="192px"><path fill="#BCBCBC" d="M315.2 318.9c-1.2-1.1-2.1-2.3-2.8-3.7-.1 1.9 0 3.9.2 5.8.2 1.8.4 4.2 2.5 4.4 1.4.1 3-.9 3.9-1.8.6-.6 1.2-1.3 1.8-2C318.9 321.3 317 320.5 315.2 318.9zM327.6 298.2c-.8-2-1.3-3.2-2.9-1.9-2 1.5-3.4 3.9-3.9 6.3-.4 2-1 9.9 1.6 9.5 1.5-.3 3-1 4.4-1.9C327.8 306.5 329.1 301.8 327.6 298.2zM335.1 98.2c-1.9-4-3.8-8-5.9-11.9-2.3-4.5-5.5-12.5-9.1-15-6.8-4.6-17.4-2.9-25-2.1-6.2.6-12.3 1.3-18.5 1-12-.6-24-1.5-36-.6-6.1.4-24.3 1.3-24.5 9.8 0 .7-.2 1.3-.4 1.9.5 1.4.3 2.9-.7 4.4.7-1 .1.2 0 .5-.3 1.1-.5 2.2-.7 3.3-.5 2.6-.9 5.3-1.2 8-.3 3.2-.7 5.9 2.7 7.4 9.2 4 21.9.6 31.4-.8 14.8-2.3 30.1-2.3 45-3.1 14.5-.9 28.9-1.7 43.4-1.9C335.4 98.8 335.2 98.5 335.1 98.2zM298.2 87.2c-4.5.2-9-.2-13.5.3-4.5.5-8.9 1.2-13.3 1.8-9.5 1.5-18.9 2.6-28.5 2-6-.4-4.2-9.6 1.8-9.2 9.3.6 18.6-1 27.7-2.4 6.8-1.1 13.4-1.4 20.2-1.7 1.6-1.6 4.1-2.2 6.4-.4.6.5 1.3.9 2 1.4C304.3 81.4 302 87.1 298.2 87.2zM295.9 56.8c-1.2-1.4-3.6-3.1-5.7-4.2-6.4-3.3-13.6-5.1-20.7-5.8-10.9-1.1-28.9-.2-30.9 13.5 12.2-.9 24.5-.1 36.7.5 6.8.4 14.3-.8 21.9-1.5C297.2 58.5 296.9 58 295.9 56.8z"/><path fill="#127274" d="M462.9,367.9c-0.4-30.4-2.2-60.7-4.3-91c-2-29.1-3.8-58.1-5.4-87.2c-1.4-26-3-52.9-13.1-77.2c-4.6-11.1-10.5-22.4-20.7-29.3c-8.9-6-19.8-8.5-30.4-9.6c-9.1-0.9-18.2-1.2-27.3-0.2c-6.8,0.7-17.9,1.2-22.9,6.7c-0.5,0.6-1.1,1-1.7,1.2c1.3,2.6,2.6,5.2,3.9,7.8c10.3-0.2,20.6-1.2,30.9-1.6c10-0.4,20.6-0.8,30.4,1.7c1.1,0.3,1.9,0.8,2.5,1.5c4.8,0.4,9.6,1.6,12.3,6.1c2,3.4,2.4,7.5,2.8,11.3c0.7,6.6,1.1,13.1,1,19.7c-0.2,15-1,29.8,0.2,44.8c1.2,15,3.3,29.9,4.8,44.9c1.5,15.2,2.1,30.4,2.6,45.7c1.1,30.9,1.5,61.9,1.6,92.8c0.1,14.8-0.9,29.9,0.1,44.7c0.4,5.2,1.2,12.1-1.4,16.8c1.5,1.6,2.1,4.1,0.1,6.1c-4.5,4.8-11.7,6.1-17.9,6.8c-8.3,0.9-16.7,0.7-25.1,0.3c-19.3-0.9-38.5-1.4-57.8-2c-28-0.9-55.8-0.7-83.8,1c-27.7,1.7-55.4,3.8-83.2,3.9c-0.5,0-0.9-0.1-1.3-0.2c-2-0.2-3.7-1.5-3.7-4.2c0-106.5-5.6-213-5.6-319.5c0-4.8,5.9-6.2,8.3-3.6c15,0.1,30.4,1.2,45.1-2.5c-0.7-3.5-0.1-7.4,0.4-10.9c0.1-0.8,0.2-1.7,0.3-2.5c-1.1,0.1-2.1,0.2-3.2,0.3c-7.2,1-13.8,3.7-20.8,5.3c-5.9,1.3-11.9,2.2-17.8,3.4c-11.2,2.2-22.6,4.5-30.1,13.7c-12.3,15.1-15.1,37-16,55.8c-3.1,58.4,0.8,117,1,175.4c0.1,24.7-3.1,51.5,5.1,75.3c3.4,9.9,8.3,19.1,16.4,25.9c7.8,6.5,16.9,11.2,26.4,14.8c21.4,8.2,44.5,12.3,67.1,15.5c30,4.2,60.4,5.9,90.7,4.4c24.1-1.2,48.9-3.5,72.6-8.4c22.2-4.6,44-13.9,55.5-34.7C462.8,415.8,463.1,391.2,462.9,367.9z"/><path fill="#D6E5E5" d="M420.9,403.2c-0.5-6.1-0.2-12.4-0.2-18.5c0-15.6,0-31.1-0.1-46.7c-0.2-30.8-0.8-61.7-2.2-92.5c-1.4-30.2-7.4-60.1-7.5-90.4c-0.1-14.7,1.3-29.3-0.1-43.9c-0.3-2.9,0-7.8-2.1-10.2c-1.3-1.5-6.4-1.1-8.2-1.1c-2,0-3.4-1-4.2-2.4c-8.7-1.5-17.8-1-26.5-0.5c-8.5,0.4-17.1,1.1-25.6,1.4c-0.2,0.5-0.5,1-1,1.3c3.5,2.2,3.1,8.6-1.9,8.6c-18.9,0-37.8,1.3-56.7,2.4c-9.7,0.6-19.4,1.2-29.1,1.7c-5.8,0.3-11.5,1.6-17.2,2.3c-8.7,1.1-21.9,2.8-29.6-3.2c-0.4,0.3-0.9,0.5-1.5,0.7c-15.6,4-31.6,3.2-47.5,3.1c0.2,102.9,5.5,205.8,5.6,308.7c25.5-0.3,50.9-2.2,76.4-3.7c27.3-1.7,54.6-2.1,82-1.2c19.4,0.6,38.8,1,58.2,1.9c8.1,0.4,16.3,0.7,24.4,0.2c3-0.2,7.4-0.3,11-1.4c-1.4-2.4-1.1-5.7,2.3-6.7C422.6,412.3,421.1,405.5,420.9,403.2z M199.8,234.1c30,0,60-1.1,89.9-3.4c16.2-1.2,32.3-3.4,48.6-3.6c10-0.1,20.1,0,30.1,0c6,0,6.8,9.4,0.7,9.4h-2.5c-0.1,0-0.1,0-0.2,0c-9.7,0-19.5-0.2-29.2,0.1c-15.6,0.4-31.1,2.4-46.7,3.6c-29.9,2.3-59.9,3.4-89.9,3.4C194.5,243.5,193.7,234.1,199.8,234.1z M202.6,208.8c55-0.1,109.7-5.6,164.7-5.6c6,0,6.8,9.4,0.7,9.4c-55,0.1-109.7,5.6-164.7,5.6C197.3,218.2,196.5,208.8,202.6,208.8z M202.6,183.4c55.4,0,110.7-2.8,166.1-2.8c6,0,6.8,9.4,0.7,9.4c-55.4,0-110.7,2.8-166.1,2.8C197.3,192.8,196.5,183.5,202.6,183.4z M207.5,264.6c-6,0-6.8-9.4-0.7-9.4c33.1,0,66.3-0.8,99.4,0.6c11.2,0.5,22.4,0.9,33.6,0.7c4.8-0.1,9.7-0.2,14.4-0.9c1.7-0.2,3.1-0.4,4.6-0.9c0.3-0.1,0.6-0.2,0.7-0.3c3-4.5,10.6-0.4,8,4.8c-3.4,6.8-16.2,6.3-22.4,6.5c-11.8,0.4-23.7,0-35.6-0.4C275.6,263.9,241.6,264.6,207.5,264.6z M375.4,303.8c-3.1,4.1-7.7,6.2-11.5,4.8c-4.3,4.7-10.2,10.2-16,8.8c-3.9-0.9-5.9-3.8-6.8-7.2c-2,2-4.3,4.1-6.6,5.9c-2.2,5.9-5.5,11.7-10.5,15.4c-5.9,4.3-14.9,4.4-18.6-2.8c-0.8-1.6-1.4-3.2-1.7-4.9c-0.7,1.5-1.4,2.9-2.2,4.3c-3,5.2-11.4,1.1-8.4-4.2c4.4-7.7,6.5-16.3,11.9-23.5c1.7-2.2,5.1-1.9,7-0.2c3.1-10.6,12.3-19.3,21-10.9c3.1,2.9,4.3,6.9,4.6,11c1.4-1.4,2.7-2.8,4.1-4.1c3.5-3.5,8.4-0.6,8.1,4c-0.1,2.4-0.4,5.3,0.4,7.7c3.9-1.8,7-5.7,9.8-8.8c2.1-2.3,5.2-1.9,7,0.1c0.2-0.1,0.3-0.2,0.6-0.4l0.9-1.2C372,292.8,379,299,375.4,303.8z M375,164.7c-18.1,0-36.1,1-54.1,1.8c-18.2,0.8-36.3,1-54.5,1c-13.1,0-26.1,0.2-39.1-0.5c-5-0.3-10-0.6-15.1-0.7c-2.1,0-4.3-0.1-6.4,0c-0.5,0-1,0.1-1.5,0.1c-2.3,1.7-6,1.5-7-2.1c-2.8-10,15.3-7.5,20.2-7.2c12.4,0.6,24.7,1,37.2,1c20.1,0,40.2,0.1,60.3-0.8c18-0.8,35.9-1.8,53.9-2c1.6-1.7,4.1-2.4,6.3-0.3c0.2,0.2,0.3,0.3,0.5,0.4C380.4,156.6,380.7,164.6,375,164.7z"/><path fill="#010101" d="M471.8,348.8c-0.9-30.3-3.1-60.5-5.1-90.8c-1.9-28.2-3.2-56.4-5.2-84.6c-1.8-26-5.9-51.8-17.9-75.2c-5.3-10.3-12.3-18.8-22.3-24.8c-9.1-5.5-20.1-7.9-30.6-9c-10.7-1.2-21.5-1.3-32.2-0.1c-8.5,0.9-19.3,2.4-25.8,8.6c-2-3.6-4.3-6.9-7.4-9.1c-5.6-3.8-12.1-4.9-18.8-5c0-14-24.2-19.8-34.4-21c-16.2-2-40.6,1.2-42.9,21.4c-0.1,0.8,0,1.6,0.2,2.2c-10.7,1.8-22.5,6.4-22.8,18.7c0,0.2,0,0.4,0,0.6c-13.2,0.3-25.6,5.6-38.5,7.9c-11.6,2.1-25,3.7-34.8,10.7c-15.9,11.3-21.7,32.6-24.4,50.9c-3.5,23.3-2.7,47.6-2.6,71.1c0,31.2,1,62.4,1.5,93.6c0.2,14.6,0.5,29.3,0.2,43.9c-0.2,12.5-0.4,25.1,0.6,37.6c1.8,22,8.9,44.2,26.9,58.3c16,12.5,36.4,18.4,55.9,23c26.8,6.3,54.4,9.9,82,11.5c28.8,1.6,57.3,0.4,86-2.8c22.1-2.5,45-4.8,65.6-13.8c20.9-9.2,35.1-26.9,41.8-48.4C474.3,400.1,472.6,373.5,471.8,348.8z M269.5,46.8c7.2,0.7,14.3,2.5,20.7,5.8c2.1,1.1,4.5,2.8,5.7,4.2c0.9,1.2,1.2,1.7,1.2,2.4c-7.5,0.7-15.1,1.9-21.9,1.5c-12.2-0.7-24.5-1.4-36.7-0.5C240.7,46.6,258.6,45.7,269.5,46.8z M213,97.5c0.2-2.7,0.7-5.3,1.2-8c0.2-1.1,0.5-2.2,0.7-3.3c0.1-0.4,0.7-1.5,0-0.5c1.1-1.5,1.2-3,0.7-4.4c0.2-0.6,0.4-1.2,0.4-1.9c0.2-8.5,18.4-9.4,24.5-9.8c12-0.8,24,0,36,0.6c6.2,0.3,12.3-0.3,18.5-1c7.6-0.8,18.3-2.5,25,2.1c3.6,2.5,6.8,10.5,9.1,15c2,3.9,4,7.9,5.9,11.9c0.1,0.3,0.3,0.6,0.5,0.9c-14.5,0.2-28.9,1-43.4,1.9c-14.9,0.9-30.2,0.9-45,3.1c-9.5,1.4-22.2,4.9-31.4,0.8C212.3,103.4,212.7,100.7,213,97.5z M207.3,112.3c0.6-0.2,1.1-0.4,1.5-0.7c7.7,6,20.8,4.3,29.6,3.2c5.7-0.7,11.4-2,17.2-2.3c9.7-0.5,19.4-1.1,29.1-1.7c18.9-1.2,37.8-2.4,56.7-2.4c5,0,5.4-6.5,1.9-8.6c0.4-0.4,0.7-0.8,1-1.3c8.5-0.3,17.1-1,25.6-1.4c8.7-0.4,17.8-0.9,26.5,0.5c0.8,1.4,2.2,2.4,4.2,2.4c1.9,0,6.9-0.4,8.2,1.1c2.1,2.4,1.8,7.3,2.1,10.2c1.5,14.6,0.1,29.3,0.1,43.9c0.1,30.2,6.1,60.2,7.5,90.4c1.5,30.8,2,61.6,2.2,92.5c0.1,15.6,0.1,31.1,0.1,46.7c0,6.2-0.3,12.4,0.2,18.5c0.2,2.3,1.7,9.1-1.3,10c-3.4,0.9-3.8,4.3-2.3,6.7c-3.6,1.1-8,1.2-11,1.4c-8.1,0.6-16.3,0.2-24.4-0.2c-19.4-1-38.7-1.3-58.2-1.9c-27.4-0.9-54.6-0.4-82,1.2c-25.5,1.5-50.9,3.5-76.4,3.7c-0.1-102.9-5.3-205.8-5.6-308.7C175.8,115.5,191.7,116.4,207.3,112.3z M451.3,436.8c-11.5,20.9-33.3,30.1-55.5,34.7c-23.7,4.9-48.5,7.2-72.6,8.4c-30.3,1.5-60.7-0.2-90.7-4.4c-22.6-3.2-45.7-7.3-67.1-15.5c-9.4-3.6-18.6-8.3-26.4-14.8c-8.1-6.8-13-16-16.4-25.9c-8.1-23.8-5-50.6-5.1-75.3c-0.2-58.4-4-117-1-175.4c1-18.8,3.8-40.7,16-55.8c7.5-9.2,19-11.6,30.1-13.7c5.9-1.1,11.9-2.1,17.8-3.4c7-1.5,13.6-4.2,20.8-5.3c1-0.2,2.1-0.2,3.2-0.3c-0.1,0.9-0.2,1.7-0.3,2.5c-0.5,3.5-1.1,7.3-0.4,10.9c-14.7,3.7-30,2.6-45.1,2.5c-2.4-2.6-8.3-1.1-8.3,3.6c0,106.5,5.6,213,5.6,319.5c0,2.6,1.8,4,3.7,4.2c0.4,0.1,0.8,0.2,1.3,0.2c27.8,0,55.5-2.2,83.2-3.9c28-1.7,55.8-1.9,83.8-1c19.3,0.6,38.5,1.1,57.8,2c8.3,0.4,16.8,0.5,25.1-0.3c6.2-0.7,13.4-2,17.9-6.8c1.9-2.1,1.4-4.6-0.1-6.1c2.6-4.7,1.7-11.6,1.4-16.8c-1-14.7-0.1-29.9-0.1-44.7c-0.1-30.9-0.5-61.9-1.6-92.8c-0.5-15.2-1.1-30.5-2.6-45.7c-1.5-15-3.6-29.9-4.8-44.9c-1.2-15-0.4-29.8-0.2-44.8c0.1-6.6-0.3-13.2-1-19.7c-0.4-3.8-0.8-8-2.8-11.3c-2.6-4.5-7.4-5.7-12.3-6.1c-0.6-0.7-1.4-1.2-2.5-1.5c-9.8-2.5-20.4-2.1-30.4-1.7c-10.3,0.4-20.6,1.4-30.9,1.6c-1.3-2.6-2.6-5.2-3.9-7.8c0.6-0.3,1.2-0.7,1.7-1.2c5-5.5,16.1-6,22.9-6.7c9.1-0.9,18.2-0.7,27.3,0.2c10.6,1.1,21.4,3.6,30.4,9.6c10.2,6.9,16,18.3,20.7,29.3c10.1,24.3,11.7,51.2,13.1,77.2c1.6,29.1,3.5,58.2,5.4,87.2c2.1,30.3,3.9,60.6,4.3,91C463.1,391.2,462.8,415.8,451.3,436.8z"/><path fill="#010101" d="M300.9 79c-.7-.5-1.4-.9-2-1.4-2.2-1.8-4.8-1.2-6.4.4-6.8.3-13.4.6-20.2 1.7-9.1 1.4-18.4 3-27.7 2.4-6-.4-7.8 8.8-1.8 9.2 9.6.6 19-.6 28.5-2 4.4-.7 8.9-1.4 13.3-1.8 4.5-.5 9-.1 13.5-.3C302 87.1 304.3 81.4 300.9 79zM375.4 155.4c-.1-.1-.3-.2-.5-.4-2.2-2.1-4.7-1.4-6.3.3-18 .2-35.9 1.2-53.9 2-20.1.9-40.2.8-60.3.8-12.5 0-24.7-.4-37.2-1-4.9-.2-23.1-2.7-20.2 7.2 1 3.6 4.7 3.8 7 2.1.5-.1 1-.1 1.5-.1 2.1-.1 4.3-.1 6.4 0 5 .1 10.1.4 15.1.7 13 .7 26.1.5 39.1.5 18.2 0 36.4-.2 54.5-1 18-.8 36.1-1.8 54.1-1.8C380.7 164.6 380.4 156.6 375.4 155.4zM368.7 180.6c-55.4 0-110.7 2.8-166.1 2.8-6 0-5.3 9.4.7 9.4 55.4 0 110.7-2.8 166.1-2.8C375.5 190 374.7 180.6 368.7 180.6zM367.3 203.2c-55 .1-109.7 5.6-164.7 5.6-6 0-5.3 9.4.7 9.4 55-.1 109.7-5.6 164.7-5.6C374.1 212.5 373.3 203.1 367.3 203.2zM368.4 227.1c-10 0-20.1-.1-30.1 0-16.2.2-32.4 2.4-48.6 3.6-29.9 2.3-59.9 3.4-89.9 3.4-6 0-5.3 9.4.7 9.4 30 0 60-1.1 89.9-3.4 15.6-1.2 31.1-3.1 46.7-3.6 9.7-.3 19.5-.1 29.2-.1.1 0 .1 0 .2 0h2.5C375.2 236.4 374.4 227.1 368.4 227.1zM359.6 254.4c-.2.1-.4.2-.7.3-1.5.5-2.9.7-4.6.9-4.8.6-9.6.8-14.4.9-11.2.2-22.4-.2-33.6-.7-33.1-1.4-66.3-.6-99.4-.6-6 0-5.3 9.4.7 9.4 34 0 68.1-.7 102.1.7 11.8.5 23.7.9 35.6.4 6.2-.2 19.1.4 22.4-6.5C370.2 254 362.6 249.9 359.6 254.4zM368.3 297.6l-.9 1.2c-.2.1-.4.2-.6.4-1.8-2-4.9-2.4-7-.1-2.8 3.1-5.9 7-9.8 8.8-.8-2.3-.5-5.3-.4-7.7.3-4.6-4.6-7.5-8.1-4-1.4 1.4-2.7 2.8-4.1 4.1-.2-4.1-1.5-8.1-4.6-11-8.7-8.3-17.9.4-21 10.9-1.9-1.8-5.3-2.1-7 .2-5.4 7.2-7.5 15.8-11.9 23.5-3 5.3 5.4 9.4 8.4 4.2.8-1.4 1.5-2.8 2.2-4.3.4 1.7.9 3.4 1.7 4.9 3.8 7.2 12.7 7.1 18.6 2.8 5-3.7 8.3-9.5 10.5-15.4 2.3-1.8 4.5-3.8 6.6-5.9.9 3.4 2.8 6.2 6.8 7.2 5.8 1.4 11.7-4.1 16-8.8 3.8 1.4 8.4-.7 11.5-4.8C379 299 372 292.8 368.3 297.6zM319.1 323.5c-.9.9-2.5 2-3.9 1.8-2.2-.2-2.3-2.6-2.5-4.4-.3-1.9-.3-3.8-.2-5.8.7 1.4 1.6 2.6 2.8 3.7 1.8 1.6 3.7 2.4 5.7 2.7C320.3 322.2 319.7 322.9 319.1 323.5zM326.7 310.1c-1.4.9-2.9 1.6-4.4 1.9-2.6.4-2-7.4-1.6-9.5.5-2.4 2-4.8 3.9-6.3 1.6-1.2 2.1 0 2.9 1.9C329.1 301.8 327.8 306.5 326.7 310.1z"/></svg>